{
  "accessors": [
    {
      "bufferView": 2,
      "componentType": 5126,
      "count": 65532,
      "max": [
        9.073281288146973,
        5.082722187042236,
        3.926675796508789
      ],
      "min": [
        -2.076493263244629,
        -1.2560176849365234,
        -3.6494319438934326
      ],
      "type": "VEC3"
    },
    {
      "bufferView": 2,
      "byteOffset": 786384,
      "componentType": 5126,
      "count": 65532,
      "max": [
        0.999999463558197,
        0.9999995827674866,
        0.9999986290931702
      ],
      "min": [
        -0.9999986290931702,
        -0.9999985694885254,
        -0.9999985694885254
      ],
      "type": "VEC3"
    },
    {
      "bufferView": 3,
      "componentType": 5126,
      "count": 65532,
      "max": [
        0.9999273419380188,
        0.9202028512954712,
        0.999917209148407,
        1.0
      ],
      "min": [
        -0.999815046787262,
        -0.6021400094032288,
        -0.9999515414237976,
        1.0
      ],
      "type": "VEC4"
    },
    {
      "bufferView": 1,
      "componentType": 5126,
      "count": 65532,
      "max": [
        0.9498379826545715,
        0.9845304489135742
      ],
      "min": [
        0.05635206773877144,
        0.07972980290651321
      ],
      "type": "VEC2"
    },
    {
      "bufferView": 1,
      "byteOffset": 524256,
      "componentType": 5126,
      "count": 65532,
      "max": [
        0.9498379826545715,
        0.9845304489135742
      ],
      "min": [
        0.05635206773877144,
        0.07972980290651321
      ],
      "type": "VEC2"
    },
    {
      "bufferView": 0,
      "componentType": 5125,
      "count": 163827,
      "type": "SCALAR"
    },
    {
      "bufferView": 2,
      "byteOffset": 1572768,
      "componentType": 5126,
      "count": 3423,
      "max": [
        8.584940910339355,
        5.133012294769287,
        3.9149036407470703
      ],
      "min": [
        0.49267610907554626,
        -1.2617155313491821,
        -2.7107419967651367
      ],
      "type": "VEC3"
    },
    {
      "bufferView": 2,
      "byteOffset": 1613844,
      "componentType": 5126,
      "count": 3423,
      "max": [
        0.9999986290931702,
        0.9996775388717651,
        0.9999986290931702
      ],
      "min": [
        -0.9999958872795105,
        -0.9999986290931702,
        -0.9999771118164063
      ],
      "type": "VEC3"
    },
    {
      "bufferView": 3,
      "byteOffset": 1048512,
      "componentType": 5126,
      "count": 3423,
      "max": [
        0.996189296245575,
        0.1693359613418579,
        0.9956750869750977,
        1.0
      ],
      "min": [
        -0.9974330067634583,
        -0.6021395325660706,
        -0.9955031871795654,
        1.0
      ],
      "type": "VEC4"
    },
    {
      "bufferView": 1,
      "byteOffset": 1048512,
      "componentType": 5126,
      "count": 3423,
      "max": [
        0.9498379826545715,
        0.9845304489135742
      ],
      "min": [
        0.05635206773877144,
        0.07972980290651321
      ],
      "type": "VEC2"
    },
    {
      "bufferView": 1,
      "byteOffset": 1075896,
      "componentType": 5126,
      "count": 3423,
      "max": [
        0.9498379826545715,
        0.9845304489135742
      ],
      "min": [
        0.05635206773877144,
        0.07972980290651321
      ],
      "type": "VEC2"
    },
    {
      "bufferView": 0,
      "byteOffset": 655308,
      "componentType": 5125,
      "count": 8553,
      "type": "SCALAR"
    }
  ],
  "asset": {
    "extras": {
      "author": "RandyGF (https://sketchfab.com/RandyGF)",
      "license": "CC-BY-4.0 (http://creativecommons.org/licenses/by/4.0/)",
      "source": "https://sketchfab.com/3d-models/cloud-3a76eb255e3c4c0199bbfedb2b54342f",
      "title": "Cloud"
    },
    "generator": "Sketchfab-14.3.0",
    "version": "2.0"
  },
  "bufferViews": [
    {
      "buffer": 0,
      "byteLength": 689520,
      "name": "floatBufferViews",
      "target": 34963
    },
    {
      "buffer": 0,
      "byteLength": 1103280,
      "byteOffset": 689520,
      "byteStride": 8,
      "name": "floatBufferViews",
      "target": 34962
    },
    {
      "buffer": 0,
      "byteLength": 1654920,
      "byteOffset": 1792800,
      "byteStride": 12,
      "name": "floatBufferViews",
      "target": 34962
    },
    {
      "buffer": 0,
      "byteLength": 1103280,
      "byteOffset": 3447720,
      "byteStride": 16,
      "name": "floatBufferViews",
      "target": 34962
    }
  ],
  "buffers": [
    {
      "byteLength": 4551000,
      "uri": "scene.bin"
    }
  ],
  "images": [
    {
      "uri": "textures/Cloud_baseColor.png"
    },
    {
      "uri": "textures/Cloud_normal.png"
    }
  ],
  "materials": [
    {
      "alphaMode": "BLEND",
      "doubleSided": true,
      "name": "Cloud",
      "normalTexture": {
        "index": 1,
        "scale": 0.9980982799185673,
        "texCoord": 1
      },
      "pbrMetallicRoughness": {
        "baseColorFactor": [
          0.5470492862454438,
          0.5470492862454438,
          0.5470492862454438,
          0.43123940949153367
        ],
        "baseColorTexture": {
          "index": 0
        },
        "metallicFactor": 0.0,
        "roughnessFactor": 0.0
      }
    }
  ],
  "meshes": [
    {
      "name": "Object_0",
      "primitives": [
        {
          "attributes": {
            "NORMAL": 1,
            "POSITION": 0,
            "TANGENT": 2,
            "TEXCOORD_0": 3,
            "TEXCOORD_1": 4
          },
          "indices": 5,
          "material": 0,
          "mode": 4
        }
      ]
    },
    {
      "name": "Object_1",
      "primitives": [
        {
          "attributes": {
            "NORMAL": 7,
            "POSITION": 6,
            "TANGENT": 8,
            "TEXCOORD_0": 9,
            "TEXCOORD_1": 10
          },
          "indices": 11,
          "material": 0,
          "mode": 4
        }
      ]
    }
  ],
  "nodes": [
    {
      "children": [
        1
      ],
      "matrix": [
        1.0,
        0.0,
        0.0,
        0.0,
        0.0,
        2.220446049250313e-16,
        -1.0,
        0.0,
        0.0,
        1.0,
        2.220446049250313e-16,
        0.0,
        0.0,
        0.0,
        0.0,
        1.0
      ],
      "name": "Sketchfab_model"
    },
    {
      "children": [
        2
      ],
      "name": "root"
    },
    {
      "children": [
        3
      ],
      "matrix": [
        1.0,
        0.0,
        0.0,
        0.0,
        0.0,
        2.220446049250313e-16,
        1.0,
        0.0,
        0.0,
        -1.0,
        2.220446049250313e-16,
        0.0,
        0.0,
        0.0,
        0.0,
        1.0
      ],
      "name": "GLTF_SceneRootNode"
    },
    {
      "children": [
        4,
        5
      ],
      "name": "Cloud GN.001_2"
    },
    {
      "mesh": 0,
      "name": "Object_4"
    },
    {
      "mesh": 1,
      "name": "Object_5"
    }
  ],
  "samplers": [
    {
      "magFilter": 9729,
      "minFilter": 9987,
      "wrapS": 10497,
      "wrapT": 10497
    }
  ],
  "scene": 0,
  "scenes": [
    {
      "name": "Sketchfab_Scene",
      "nodes": [
        0
      ]
    }
  ],
  "textures": [
    {
      "sampler": 0,
      "source": 0
    },
    {
      "sampler": 0,
      "source": 1
    }
  ]
}
